<svg width="50" height="48" viewBox="0 0 50 48" fill="none" xmlns="http://www.w3.org/2000/svg">
<ellipse cx="24.6713" cy="24" rx="24.6713" ry="24" fill="#6D3B27"/>
<path d="M45.642 24C47.6858 24 49.3725 25.6671 49.0501 27.6853C48.501 31.1222 47.188 34.4172 45.1848 37.3337C42.4739 41.2805 38.6207 44.3566 34.1126 46.1731C29.6045 47.9896 24.644 48.4649 19.8582 47.5388C15.0724 46.6128 10.6764 44.327 7.22607 40.9706C3.77572 37.6141 1.426 33.3377 0.474053 28.6822C-0.477896 24.0266 0.0106786 19.201 1.87799 14.8156C3.74531 10.4302 6.90749 6.68188 10.9647 4.04473C14.0193 2.05921 17.478 0.77069 21.0834 0.255141C23.0516 -0.0263058 24.6713 1.61178 24.6713 3.6V3.6C24.6713 5.58823 23.0433 7.16308 21.0959 7.56398C18.957 8.0043 16.9126 8.83796 15.0767 10.0313C12.2366 11.8773 10.0231 14.5011 8.71599 17.5709C7.40887 20.6407 7.06687 24.0186 7.73324 27.2775C8.3996 30.5364 10.0444 33.5299 12.4596 35.8794C14.8749 38.2289 17.9521 39.829 21.3021 40.4772C24.6522 41.1254 28.1246 40.7927 31.2802 39.5212C34.4359 38.2496 37.1331 36.0963 39.0308 33.3336C40.2199 31.6024 41.0616 29.6806 41.5243 27.6693C41.9826 25.6775 43.5981 24 45.642 24V24Z" fill="#EE8313"/>
<path d="M12.4597 30V18.16H14.6357V23.024H19.5797V18.16H21.7557V30H19.5797V24.912H14.6357V30H12.4597ZM24.0534 30V18.16H26.2294V23.296L30.7414 18.176H33.4614L28.3254 23.856L33.6694 30H30.8534L26.2294 24.592V30H24.0534Z" fill="white"/>
</svg>
